# xmcd CD database file
#
# Track frame offsets:
#	150
#	15736
#	35910
#	52033
#	69482
#	89715
#	111020
#	123765
#	148299
#	164324
#	179122
#
# Disc length: 2669 seconds
#
# Revision: 0
# Processed by: cddbd v1.5.1PL2 Copyright (c) Steve Scherf et al.
# Submitted via: CDex 1.51
#
DISCID=a60a6b0b
DTITLE=6 V 6 - Burning Blue
DYEAR=2001
DGENRE=Blues
TTITLE0=It Ain't True
TTITLE1=Light On
TTITLE2=Delta Frank
TTITLE3=Little Blue Pill
TTITLE4=St.James Infirmary
TTITLE5=New Car Blues
TTITLE6=Bye Bye Daddy
TTITLE7=One Dollar
TTITLE8=Rhythm Kitchen
TTITLE9=Thursday Night
TTITLE10=Greg's Blues
EXTD=YEAR: 2001
EXTT0=
EXTT1=
EXTT2=
EXTT3=
EXTT4=
EXTT5=
EXTT6=
EXTT7=
EXTT8=
EXTT9=
EXTT10=
PLAYORDER=
